<svg width="1024" height="1024" viewBox="0 0 1024 1024" fill="none" xmlns="http://www.w3.org/2000/svg">
  <defs>
    <linearGradient id="bg" x1="0" y1="0" x2="1024" y2="1024" gradientUnits="userSpaceOnUse">
      <stop stop-color="#B8E1FF"/>
      <stop offset="0.55" stop-color="#E8F3FF"/>
      <stop offset="1" stop-color="#E9D9BF"/>
    </linearGradient>
    <linearGradient id="sand" x1="0" y1="0" x2="0" y2="1">
      <stop stop-color="#F4EAD8"/>
      <stop offset="1" stop-color="#D7C19C"/>
    </linearGradient>
    <pattern id="px" width="8" height="8" patternUnits="userSpaceOnUse">
      <rect width="8" height="8" fill="transparent"/>
      <rect x="0" y="0" width="2" height="2" fill="rgba(0,0,0,0.06)"/>
      <rect x="4" y="2" width="2" height="2" fill="rgba(0,0,0,0.05)"/>
      <rect x="2" y="6" width="2" height="2" fill="rgba(0,0,0,0.04)"/>
    </pattern>
  </defs>

  <rect x="0" y="0" width="1024" height="1024" fill="url(#bg)"/>
  <rect x="0" y="0" width="1024" height="1024" fill="url(#px)" opacity="0.8"/>

  <!-- window -->
  <rect x="140" y="170" width="744" height="620" rx="22" fill="rgba(255,255,255,0.65)" stroke="rgba(0,0,0,0.25)" stroke-width="10"/>
  <rect x="140" y="170" width="744" height="86" rx="22" fill="rgba(30,80,175,0.9)"/>
  <rect x="140" y="238" width="744" height="18" fill="rgba(0,0,0,0.08)"/>

  <!-- doc -->
  <rect x="210" y="290" width="360" height="430" rx="16" fill="rgba(255,255,255,0.7)" stroke="rgba(0,0,0,0.18)" stroke-width="8"/>
  <rect x="242" y="334" width="296" height="18" fill="rgba(0,0,0,0.18)"/>
  <rect x="242" y="372" width="240" height="14" fill="rgba(0,0,0,0.14)"/>
  <rect x="242" y="408" width="260" height="14" fill="rgba(0,0,0,0.12)"/>
  <rect x="242" y="444" width="220" height="14" fill="rgba(0,0,0,0.1)"/>

  <!-- checklist -->
  <g opacity="0.92">
    <rect x="242" y="498" width="24" height="24" fill="url(#sand)" stroke="rgba(0,0,0,0.22)" stroke-width="6"/>
    <rect x="282" y="504" width="220" height="12" fill="rgba(0,0,0,0.14)"/>
    <rect x="242" y="552" width="24" height="24" fill="url(#sand)" stroke="rgba(0,0,0,0.22)" stroke-width="6"/>
    <rect x="282" y="558" width="180" height="12" fill="rgba(0,0,0,0.12)"/>
    <rect x="242" y="606" width="24" height="24" fill="url(#sand)" stroke="rgba(0,0,0,0.22)" stroke-width="6"/>
    <rect x="282" y="612" width="200" height="12" fill="rgba(0,0,0,0.11)"/>
  </g>

  <!-- magnifier -->
  <circle cx="690" cy="520" r="128" fill="rgba(255,255,255,0.35)" stroke="rgba(0,0,0,0.3)" stroke-width="14"/>
  <circle cx="690" cy="520" r="96" fill="rgba(184,225,255,0.25)" stroke="rgba(0,0,0,0.18)" stroke-width="10"/>
  <rect x="768" y="608" width="164" height="30" rx="14" transform="rotate(45 768 608)" fill="rgba(0,0,0,0.65)"/>
  <rect x="778" y="598" width="146" height="12" rx="6" transform="rotate(45 778 598)" fill="rgba(244,234,216,0.95)"/>
</svg>

